<svg id="visual" viewBox="0 0 960 540" width="960" height="540" xmlns="http://www.w3.org/2000/svg" xmlns:xlink="http://www.w3.org/1999/xlink" version="1.1"><path d="M0 131L87 131L87 60L175 60L175 55L262 55L262 93L349 93L349 82L436 82L436 93L524 93L524 120L611 120L611 55L698 55L698 98L785 98L785 44L873 44L873 77L960 77L960 82L960 0L960 0L873 0L873 0L785 0L785 0L698 0L698 0L611 0L611 0L524 0L524 0L436 0L436 0L349 0L349 0L262 0L262 0L175 0L175 0L87 0L87 0L0 0Z" fill="#005792"></path><path d="M0 179L87 179L87 109L175 109L175 120L262 120L262 147L349 147L349 152L436 152L436 168L524 168L524 206L611 206L611 125L698 125L698 152L785 152L785 152L873 152L873 174L960 174L960 168L960 80L960 75L873 75L873 42L785 42L785 96L698 96L698 53L611 53L611 118L524 118L524 91L436 91L436 80L349 80L349 91L262 91L262 53L175 53L175 58L87 58L87 129L0 129Z" fill="#054e80"></path><path d="M0 212L87 212L87 190L175 190L175 195L262 195L262 206L349 206L349 239L436 239L436 249L524 249L524 282L611 282L611 217L698 217L698 217L785 217L785 217L873 217L873 255L960 255L960 249L960 166L960 172L873 172L873 150L785 150L785 150L698 150L698 123L611 123L611 204L524 204L524 166L436 166L436 150L349 150L349 145L262 145L262 118L175 118L175 107L87 107L87 177L0 177Z" fill="#0b456e"></path><path d="M0 384L87 384L87 395L175 395L175 320L262 320L262 390L349 390L349 368L436 368L436 433L524 433L524 352L611 352L611 374L698 374L698 384L785 384L785 303L873 303L873 363L960 363L960 433L960 247L960 253L873 253L873 215L785 215L785 215L698 215L698 215L611 215L611 280L524 280L524 247L436 247L436 237L349 237L349 204L262 204L262 193L175 193L175 188L87 188L87 210L0 210Z" fill="#103c5d"></path><path d="M0 541L87 541L87 541L175 541L175 541L262 541L262 541L349 541L349 541L436 541L436 541L524 541L524 541L611 541L611 541L698 541L698 541L785 541L785 541L873 541L873 541L960 541L960 541L960 431L960 361L873 361L873 301L785 301L785 382L698 382L698 372L611 372L611 350L524 350L524 431L436 431L436 366L349 366L349 388L262 388L262 318L175 318L175 393L87 393L87 382L0 382Z" fill="#13334c"></path></svg>