<svg id="visual" viewBox="0 0 960 540" width="960" height="540" xmlns="http://www.w3.org/2000/svg" xmlns:xlink="http://www.w3.org/1999/xlink" version="1.1"><path d="M0 33L46 33L46 28L91 28L91 33L137 33L137 39L183 39L183 60L229 60L229 33L274 33L274 93L320 93L320 50L366 50L366 82L411 82L411 39L457 39L457 98L503 98L503 104L549 104L549 82L594 82L594 77L640 77L640 98L686 98L686 93L731 93L731 44L777 44L777 71L823 71L823 28L869 28L869 44L914 44L914 44L960 44L960 33L960 0L960 0L914 0L914 0L869 0L869 0L823 0L823 0L777 0L777 0L731 0L731 0L686 0L686 0L640 0L640 0L594 0L594 0L549 0L549 0L503 0L503 0L457 0L457 0L411 0L411 0L366 0L366 0L320 0L320 0L274 0L274 0L229 0L229 0L183 0L183 0L137 0L137 0L91 0L91 0L46 0L46 0L0 0Z" fill="#13334c"></path><path d="M0 87L46 87L46 77L91 77L91 66L137 66L137 98L183 98L183 87L229 87L229 82L274 82L274 120L320 120L320 71L366 71L366 136L411 136L411 66L457 66L457 114L503 114L503 125L549 125L549 104L594 104L594 93L640 93L640 152L686 152L686 120L731 120L731 71L777 71L777 93L823 93L823 50L869 50L869 104L914 104L914 60L960 60L960 71L960 31L960 42L914 42L914 42L869 42L869 26L823 26L823 69L777 69L777 42L731 42L731 91L686 91L686 96L640 96L640 75L594 75L594 80L549 80L549 102L503 102L503 96L457 96L457 37L411 37L411 80L366 80L366 48L320 48L320 91L274 91L274 31L229 31L229 58L183 58L183 37L137 37L137 31L91 31L91 26L46 26L46 31L0 31Z" fill="#113855"></path><path d="M0 120L46 120L46 158L91 158L91 174L137 174L137 147L183 147L183 152L229 152L229 174L274 174L274 168L320 168L320 152L366 152L366 206L411 206L411 190L457 190L457 168L503 168L503 195L549 195L549 163L594 163L594 185L640 185L640 179L686 179L686 158L731 158L731 131L777 131L777 147L823 147L823 174L869 174L869 163L914 163L914 152L960 152L960 114L960 69L960 58L914 58L914 102L869 102L869 48L823 48L823 91L777 91L777 69L731 69L731 118L686 118L686 150L640 150L640 91L594 91L594 102L549 102L549 123L503 123L503 112L457 112L457 64L411 64L411 134L366 134L366 69L320 69L320 118L274 118L274 80L229 80L229 85L183 85L183 96L137 96L137 64L91 64L91 75L46 75L46 85L0 85Z" fill="#0f3d5f"></path><path d="M0 147L46 147L46 206L91 206L91 212L137 212L137 195L183 195L183 190L229 190L229 195L274 195L274 195L320 195L320 168L366 168L366 222L411 222L411 239L457 239L457 217L503 217L503 249L549 249L549 228L594 228L594 233L640 233L640 201L686 201L686 190L731 190L731 179L777 179L777 206L823 206L823 212L869 212L869 222L914 222L914 195L960 195L960 141L960 112L960 150L914 150L914 161L869 161L869 172L823 172L823 145L777 145L777 129L731 129L731 156L686 156L686 177L640 177L640 183L594 183L594 161L549 161L549 193L503 193L503 166L457 166L457 188L411 188L411 204L366 204L366 150L320 150L320 166L274 166L274 172L229 172L229 150L183 150L183 145L137 145L137 172L91 172L91 156L46 156L46 118L0 118Z" fill="#0d4269"></path><path d="M0 190L46 190L46 260L91 260L91 249L137 249L137 222L183 222L183 260L229 260L229 260L274 260L274 239L320 239L320 222L366 222L366 293L411 293L411 266L457 266L457 260L503 260L503 271L549 271L549 255L594 255L594 287L640 287L640 217L686 217L686 244L731 244L731 201L777 201L777 282L823 282L823 239L869 239L869 282L914 282L914 276L960 276L960 168L960 139L960 193L914 193L914 220L869 220L869 210L823 210L823 204L777 204L777 177L731 177L731 188L686 188L686 199L640 199L640 231L594 231L594 226L549 226L549 247L503 247L503 215L457 215L457 237L411 237L411 220L366 220L366 166L320 166L320 193L274 193L274 193L229 193L229 188L183 188L183 193L137 193L137 210L91 210L91 204L46 204L46 145L0 145Z" fill="#094873"></path><path d="M0 330L46 330L46 341L91 341L91 395L137 395L137 309L183 309L183 352L229 352L229 379L274 379L274 368L320 368L320 384L366 384L366 406L411 406L411 325L457 325L457 422L503 422L503 417L549 417L549 444L594 444L594 411L640 411L640 357L686 357L686 411L731 411L731 449L777 449L777 401L823 401L823 411L869 411L869 357L914 357L914 417L960 417L960 357L960 166L960 274L914 274L914 280L869 280L869 237L823 237L823 280L777 280L777 199L731 199L731 242L686 242L686 215L640 215L640 285L594 285L594 253L549 253L549 269L503 269L503 258L457 258L457 264L411 264L411 291L366 291L366 220L320 220L320 237L274 237L274 258L229 258L229 258L183 258L183 220L137 220L137 247L91 247L91 258L46 258L46 188L0 188Z" fill="#064d7d"></path><path d="M0 379L46 379L46 395L91 395L91 444L137 444L137 320L183 320L183 374L229 374L229 411L274 411L274 384L320 384L320 433L366 433L366 449L411 449L411 341L457 341L457 465L503 465L503 433L549 433L549 498L594 498L594 465L640 465L640 406L686 406L686 465L731 465L731 460L777 460L777 449L823 449L823 465L869 465L869 374L914 374L914 444L960 444L960 401L960 355L960 415L914 415L914 355L869 355L869 409L823 409L823 399L777 399L777 447L731 447L731 409L686 409L686 355L640 355L640 409L594 409L594 442L549 442L549 415L503 415L503 420L457 420L457 323L411 323L411 404L366 404L366 382L320 382L320 366L274 366L274 377L229 377L229 350L183 350L183 307L137 307L137 393L91 393L91 339L46 339L46 328L0 328Z" fill="#025288"></path><path d="M0 541L46 541L46 541L91 541L91 541L137 541L137 541L183 541L183 541L229 541L229 541L274 541L274 541L320 541L320 541L366 541L366 541L411 541L411 541L457 541L457 541L503 541L503 541L549 541L549 541L594 541L594 541L640 541L640 541L686 541L686 541L731 541L731 541L777 541L777 541L823 541L823 541L869 541L869 541L914 541L914 541L960 541L960 541L960 399L960 442L914 442L914 372L869 372L869 463L823 463L823 447L777 447L777 458L731 458L731 463L686 463L686 404L640 404L640 463L594 463L594 496L549 496L549 431L503 431L503 463L457 463L457 339L411 339L411 447L366 447L366 431L320 431L320 382L274 382L274 409L229 409L229 372L183 372L183 318L137 318L137 442L91 442L91 393L46 393L46 377L0 377Z" fill="#005792"></path></svg>